<?xml version="1.0" encoding="UTF-8"?>
<!DOCTYPE svg PUBLIC "-//W3C//DTD SVG 1.1//EN" "http://www.w3.org/Graphics/SVG/1.1/DTD/svg11.dtd">
<svg xmlns="http://www.w3.org/2000/svg" version="1.1" width="512px" height="512px" style="shape-rendering:geometricPrecision; text-rendering:geometricPrecision; image-rendering:optimizeQuality; fill-rule:evenodd; clip-rule:evenodd" xmlns:xlink="http://www.w3.org/1999/xlink">
<g><path style="opacity:0.947" fill="#000000" d="M 232.5,-0.5 C 247.833,-0.5 263.167,-0.5 278.5,-0.5C 362.758,9.30698 427.925,49.6403 474,120.5C 495.03,155.422 507.53,193.088 511.5,233.5C 511.5,248.167 511.5,262.833 511.5,277.5C 498.959,377.766 446.959,449.266 355.5,492C 330.316,502.296 304.316,508.796 277.5,511.5C 262.833,511.5 248.167,511.5 233.5,511.5C 133.193,499.016 61.693,447.016 19,355.5C 8.86452,330.623 2.36452,304.957 -0.5,278.5C -0.5,263.167 -0.5,247.833 -0.5,232.5C 10.7579,142.111 55.7579,74.2777 134.5,29C 165.483,13.1686 198.15,3.33531 232.5,-0.5 Z M 254.5,15.5 C 317.36,16.7842 372.027,38.2842 418.5,80C 392.986,105.681 367.32,131.181 341.5,156.5C 336.701,142.269 332.201,127.936 328,113.5C 327.315,110.943 325.815,109.109 323.5,108C 279.5,107.333 235.5,107.333 191.5,108C 189.185,109.109 187.685,110.943 187,113.5C 181.461,128.618 175.627,143.618 169.5,158.5C 142.753,159.017 116.086,159.85 89.5,161C 88.8742,161.75 88.3742,162.584 88,163.5C 87.3333,234.167 87.3333,304.833 88,375.5C 88.5,377.333 89.6667,378.5 91.5,379C 100.5,379.333 109.5,379.667 118.5,380C 105.667,392.833 92.8333,405.667 80,418.5C 22.1163,352.292 3.78301,276.292 25,190.5C 51.5,106.667 106.667,51.5 190.5,25C 211.631,19.4345 232.964,16.2678 254.5,15.5 Z M 430.5,92.5 C 488.821,158.456 507.321,234.456 486,320.5C 457.664,409.17 398.497,465.337 308.5,489C 226.86,505.258 154.86,485.925 92.5,431C 109.5,414 126.5,397 143.5,380C 235.5,379.667 327.5,379.333 419.5,379C 420.416,378.626 421.25,378.126 422,377.5C 423.66,306.248 423.993,234.915 423,163.5C 422.5,161.667 421.333,160.5 419.5,160C 401.167,159.667 382.833,159.333 364.5,159C 386.702,136.965 408.702,114.799 430.5,92.5 Z M 201.5,123.5 C 238.833,123.5 276.167,123.5 313.5,123.5C 318.132,139.551 322.632,155.551 327,171.5C 317.625,181.21 307.958,190.543 298,199.5C 274.904,186.056 250.737,183.889 225.5,193C 191.161,210.166 175.994,237.999 180,276.5C 181.902,286.54 185.568,295.874 191,304.5C 191.667,305.5 191.667,306.5 191,307.5C 172.5,326 154,344.5 135.5,363C 124.839,363.5 114.172,363.667 103.5,363.5C 103.5,300.833 103.5,238.167 103.5,175.5C 129.589,175.982 155.589,175.482 181.5,174C 188.658,157.358 195.325,140.525 201.5,123.5 Z M 347.5,175.5 C 367.5,175.5 387.5,175.5 407.5,175.5C 407.5,238.167 407.5,300.833 407.5,363.5C 325.166,363.667 242.833,363.5 160.5,363C 174.681,348.653 189.014,334.486 203.5,320.5C 226.351,339.2 252.018,344.367 280.5,336C 317.928,320.333 334.761,292.166 331,251.5C 328.335,236.506 322.169,223.173 312.5,211.5C 324.188,199.479 335.855,187.479 347.5,175.5 Z M 255.5,203.5 C 263.703,204.242 271.703,206.075 279.5,209C 281.844,209.837 283.844,211.171 285.5,213C 258.667,239.833 231.833,266.667 205,293.5C 198.838,284.505 196.004,274.505 196.5,263.5C 197.729,234.099 212.395,214.932 240.5,206C 245.643,205.162 250.643,204.328 255.5,203.5 Z M 298.5,224.5 C 300.017,224.511 301.184,225.177 302,226.5C 315.903,246.128 318.236,267.128 309,289.5C 290.875,319.545 265.041,329.045 231.5,318C 227.5,315.667 223.5,313.333 219.5,311C 217.671,309.887 216.837,308.387 217,306.5C 244.368,279.299 271.535,251.965 298.5,224.5 Z"/></g>
<g><path style="opacity:0.892" fill="#000000" d="M 371.5,199.5 C 382.86,198.71 386.193,203.543 381.5,214C 370.964,217.997 366.464,214.497 368,203.5C 368.69,201.65 369.856,200.316 371.5,199.5 Z"/></g>
</svg>
